<?xml version="1.0" encoding="utf-8"?>
<!-- Generator: Adobe Illustrator 22.0.1, SVG Export Plug-In . SVG Version: 6.00 Build 0)  -->
<svg version="1.1" id="Layer_1" xmlns="http://www.w3.org/2000/svg" xmlns:xlink="http://www.w3.org/1999/xlink" x="0px" y="0px"
	 viewBox="0 0 35 35" style="enable-background:new 0 0 35 35;" xml:space="preserve">
<style type="text/css">
	.st0{fill:none;}
	.st1{fill:#65D27A;}
</style>
<g>
	<path class="st0" d="M17.4,29.4l-6.2-5l-4.1,3C18.9,39,27.8,27,27.7,26.9l-4.4-2.5L17.4,29.4z"/>
	<path class="st0" d="M17.5,21.9c3.1-0.1,5.9-4.1,5.9-8.4c0.1-3.8-2.7-6.9-6.1-6.8c-3.1,0.1-6,3.2-6.1,6.6
		C11.2,17.8,14.3,22,17.5,21.9z"/>
	<path class="st1" d="M17.7,0C7.7,0,0,7.5,0,17.4C0,27.4,7.6,35,17.5,35c9.8,0,17.6-7.9,17.5-17.6C34.9,7.7,27.2,0,17.7,0z
		 M17.3,6.7c3.4-0.1,6.2,3,6.1,6.8c0,4.3-2.8,8.3-5.9,8.4c-3.2,0.1-6.3-4.1-6.3-8.6C11.3,9.9,14.2,6.8,17.3,6.7z M7.1,27.4l4.1-3
		l6.2,5l5.9-5l4.4,2.5C27.8,27,18.9,39,7.1,27.4z"/>
</g>
</svg>
