<?xml version="1.0" encoding="utf-8"?>
<!-- Generator: Adobe Illustrator 22.0.1, SVG Export Plug-In . SVG Version: 6.00 Build 0)  -->
<svg version="1.1" id="Layer_1" xmlns="http://www.w3.org/2000/svg" xmlns:xlink="http://www.w3.org/1999/xlink" x="0px" y="0px"
	 viewBox="0 0 25 25" style="enable-background:new 0 0 25 25;" xml:space="preserve">
<style type="text/css">
	.st0{fill:#65D27A;}
</style>
<path class="st0" d="M12.6,0C5.5,0,0,5.4,0,12.4C0,19.5,5.4,25,12.5,25c7,0,12.6-5.6,12.5-12.6C24.9,5.5,19.4,0,12.6,0z M12.4,4.8
	c2.4-0.1,4.4,2.1,4.4,4.9c0,3.1-2,5.9-4.2,6c-2.3,0.1-4.5-2.9-4.5-6.1C8.1,7.1,10.1,4.9,12.4,4.8z M5.1,19.6l3-2.1l4.4,3.6l4.2-3.6
	l3.2,1.8C19.9,19.3,13.5,27.9,5.1,19.6z"/>
</svg>
