<?xml version="1.0" encoding="utf-8"?>
<!-- Generator: Adobe Illustrator 22.0.1, SVG Export Plug-In . SVG Version: 6.00 Build 0)  -->
<svg version="1.1" id="Laag_1" xmlns="http://www.w3.org/2000/svg" xmlns:xlink="http://www.w3.org/1999/xlink" x="0px" y="0px"
	 viewBox="0 0 25 25" style="enable-background:new 0 0 25 25;" xml:space="preserve">
<style type="text/css">
	.st0{fill:#00D66C;}
</style>
<g>
	<g>
		<g>
			<path class="st0" d="M19.4,1.5c0.5,0,0.9,0.4,0.9,0.9l0,21l0,0l-6.7-5.7l-1-0.8l-1,0.8l-6.8,5.7l0,0c0,0,0,0,0,0V2.4
				c0-0.5,0.4-0.9,0.9-0.9H19.4 M19.4,0H5.7C4.4,0,3.3,1.1,3.3,2.4v21.1c0,0.6,0.3,1.1,0.8,1.4C4.4,24.9,4.6,25,4.8,25
				c0.3,0,0.7-0.1,0.9-0.3l0,0l6.8-5.7l6.8,5.7l0,0c0.3,0.2,0.6,0.3,0.9,0.3c0.2,0,0.5-0.1,0.7-0.2c0.5-0.2,0.8-0.8,0.8-1.4v-21
				C21.8,1.1,20.7,0,19.4,0L19.4,0z"/>
		</g>
	</g>
</g>
</svg>
