<?xml version="1.0" encoding="utf-8"?>
<!-- Generator: Adobe Illustrator 22.0.1, SVG Export Plug-In . SVG Version: 6.00 Build 0)  -->
<svg version="1.1" id="Laag_1" xmlns="http://www.w3.org/2000/svg" xmlns:xlink="http://www.w3.org/1999/xlink" x="0px" y="0px"
	 viewBox="0 0 35 35" style="enable-background:new 0 0 35 35;" xml:space="preserve">
<style type="text/css">
	.st0{clip-path:url(#SVGID_2_);fill:#392681;}
	.st1{fill:#392681;}
</style>
<g>
	<g>
		<defs>
			<rect id="SVGID_1_" width="35" height="35"/>
		</defs>
		<clipPath id="SVGID_2_">
			<use xlink:href="#SVGID_1_"  style="overflow:visible;"/>
		</clipPath>
		<path class="st0" d="M33.5,23.5c-0.8,0-1.5,0.7-1.5,1.5v7.1H2.9v-7.1c0-0.8-0.7-1.5-1.5-1.5c-0.8,0-1.5,0.7-1.5,1.5v8.6
			C0,34.3,0.7,35,1.5,35h32.1c0.8,0,1.5-0.7,1.5-1.5v-8.6C35,24.1,34.4,23.5,33.5,23.5L33.5,23.5z M33.5,23.5"/>
	</g>
	<path class="st1" d="M16.4,25.2c0.8,0.8,1.8,0.4,2.1,0l8.4-9c0.6-0.6,0.5-1.5-0.1-2.1c-0.6-0.6-1.5-0.5-2.1,0.1L19,20.5v-19
		C19,0.7,18.3,0,17.5,0C16.7,0,16,0.7,16,1.5v19l-5.9-6.3c-0.6-0.6-1.5-0.6-2.1-0.1c-0.6,0.6-0.6,1.5-0.1,2.1L16.4,25.2z M16.4,25.2
		"/>
</g>
</svg>
