<?xml version="1.0" encoding="utf-8"?>
<!-- Generator: Adobe Illustrator 22.0.1, SVG Export Plug-In . SVG Version: 6.00 Build 0)  -->
<svg version="1.1" id="Laag_1" xmlns="http://www.w3.org/2000/svg" xmlns:xlink="http://www.w3.org/1999/xlink" x="0px" y="0px"
	 viewBox="0 0 35 35" style="enable-background:new 0 0 35 35;" xml:space="preserve">
<style type="text/css">
	.st0{fill:#392681;}
	.st1{fill:#382981;}
</style>
<g>
	<path class="st0" d="M1.5,34.8h32.1c0.8,0,1.4-0.6,1.5-1.4v-8.6c0-0.8-0.7-1.4-1.5-1.4c-0.8,0-1.5,0.7-1.5,1.5v7H2.9v-7
		c0-0.8-0.7-1.5-1.5-1.5c-0.8,0-1.5,0.7-1.5,1.5v8.5C0,34.2,0.7,34.8,1.5,34.8z"/>
	<path class="st1" d="M31.5,5.1L13.2,23.4l-7-7c-0.6-0.6-1.6-0.6-2.2,0s-0.6,1.6,0,2.2l8.1,8.1c0.6,0.6,1.6,0.6,2.2,0L33.6,7.3
		c0.6-0.6,0.6-1.6,0-2.2C33,4.5,32.1,4.5,31.5,5.1z"/>
</g>
</svg>
