<?xml version="1.0" encoding="utf-8"?>
<!-- Generator: Adobe Illustrator 22.0.1, SVG Export Plug-In . SVG Version: 6.00 Build 0)  -->
<svg version="1.1" id="Laag_1" xmlns="http://www.w3.org/2000/svg" xmlns:xlink="http://www.w3.org/1999/xlink" x="0px" y="0px"
	 viewBox="0 0 34.7 6.2" style="enable-background:new 0 0 34.7 6.2;" xml:space="preserve">
<style type="text/css">
	.st0{fill:none;}
	.st1{fill:#07D86A;}
</style>
<g>
	<path class="st0" d="M14.3,2.4c-0.5,0-0.9,0.4-0.9,0.9c0,0.5,0.3,0.9,0.9,0.9c0.5,0,0.9-0.4,0.9-0.9C15.2,2.7,14.9,2.4,14.3,2.4z"
		/>
	<path class="st0" d="M4.6,3.6C4.3,3.5,4.1,3.6,4,3.9C4,4.2,3.7,4.4,3.4,4.4c-0.3,0-0.5-0.2-0.6-0.5c0-0.2,0-0.4,0-0.6
		c0-0.2,0-0.4,0-0.5c0-0.1,0-0.1,0.1-0.1c0.3,0,0.6,0,0.9,0c0.2,0,0.3-0.1,0.3-0.3C4.1,2.1,4,2,3.8,2c-0.1,0-0.2,0-0.3,0
		c-0.2,0-0.2,0-0.2-0.2c0-0.1,0-0.2,0-0.3c0-0.2-0.1-0.3-0.3-0.3c-0.2,0-0.3,0.1-0.3,0.3c0,0.3,0,0.6,0,0.8c0,0.1,0,0.1-0.1,0.1
		c-0.3,0-0.6,0-0.9,0c-0.2,0-0.3,0.1-0.3,0.3C1.3,2.9,1.4,3,1.6,3c0.1,0,0.2,0,0.2,0c0.3,0,0.2,0,0.2,0.2c0,0.2,0,0.3,0,0.5
		c0,0.6,0.4,1.1,1,1.2c0.8,0.2,1.5-0.3,1.7-1.1C4.8,3.7,4.8,3.6,4.6,3.6z"/>
	<path class="st0" d="M24.6,2.4c-0.5,0-0.9,0.4-0.9,0.9c0,0.5,0.3,0.9,0.9,0.9c0.5,0,0.9-0.3,0.9-0.9C25.5,2.7,25.2,2.4,24.6,2.4z"
		/>
	<path class="st0" d="M33.1,2.4c-0.5,0-0.9,0.4-0.9,0.9c0,0.5,0.3,0.9,0.9,0.9c0.5,0,0.9-0.4,0.9-0.9C34,2.7,33.6,2.4,33.1,2.4z"/>
	<path class="st1" d="M3.1,0C1.4,0,0,1.4,0,3.1c0,1.7,1.4,3.1,3.1,3.1c1.7,0,3.1-1.4,3.1-3.1C6.2,1.4,4.9,0,3.1,0z M4.7,3.9
		C4.6,4.7,3.9,5.2,3.1,5c-0.6-0.1-1-0.6-1-1.2c0-0.2,0-0.3,0-0.5C2.1,3,2.1,3,1.9,3C1.8,3,1.7,3,1.6,3C1.4,3,1.3,2.9,1.3,2.7
		c0-0.2,0.1-0.3,0.3-0.3c0.3,0,0.6,0,0.9,0c0.1,0,0.1,0,0.1-0.1c0-0.3,0-0.6,0-0.8c0-0.2,0.1-0.3,0.3-0.3c0.2,0,0.3,0.1,0.3,0.3
		c0,0.1,0,0.2,0,0.3C3.2,1.9,3.3,2,3.5,2c0.1,0,0.2,0,0.3,0C4,2,4.1,2.1,4.1,2.3c0,0.2-0.1,0.3-0.3,0.3c-0.3,0-0.6,0-0.9,0
		c-0.1,0-0.1,0-0.1,0.1c0,0.2,0,0.3,0,0.5c0,0.2,0,0.4,0,0.6c0.1,0.3,0.3,0.5,0.6,0.5C3.7,4.4,4,4.2,4,3.9c0.1-0.3,0.2-0.4,0.6-0.3
		C4.8,3.6,4.8,3.7,4.7,3.9z"/>
	<path class="st1" d="M34.7,2.1c0-0.3,0-0.3-0.3-0.3c-0.4,0-0.4,0-0.4,0.4c-0.6-0.6-1.5-0.6-2.1,0c-0.5,0.5-0.6,1.6-0.1,2.2
		C32.4,4.9,33.3,5,34,4.4c0.1,0.1,0,0.3,0.1,0.3c0.1,0,0.3,0,0.4,0c0,0,0,0,0.1,0c0.1,0,0.2,0,0.2-0.2C34.7,3.8,34.7,2.9,34.7,2.1z
		 M33.1,4.2c-0.5,0-0.9-0.3-0.9-0.9c0-0.5,0.3-0.9,0.9-0.9c0.5,0,0.9,0.4,0.9,0.9C34,3.8,33.6,4.2,33.1,4.2z"/>
	<path class="st1" d="M15.6,1.8c-0.3,0-0.3,0-0.4,0.3c0,0,0,0,0,0c-0.7-0.6-1.6-0.5-2.1,0.1c-0.5,0.6-0.5,1.7,0.1,2.2
		c0.4,0.4,1.5,0.6,2.1,0c0.1,0.4,0.1,0.4,0.4,0.4c0,0,0.1,0,0.1,0c0.1,0,0.2,0,0.2-0.2c0-0.8,0-1.6,0-2.4
		C15.9,1.8,15.9,1.8,15.6,1.8z M14.3,4.2c-0.5,0-0.9-0.4-0.9-0.9c0-0.5,0.4-0.9,0.9-0.9c0.5,0,0.9,0.4,0.9,0.9
		C15.2,3.8,14.9,4.2,14.3,4.2z"/>
	<path class="st1" d="M26.2,1.8c-0.2,0-0.4,0-0.6,0c-0.1,0,0,0.2-0.1,0.3c0,0,0,0,0,0c-0.7-0.6-1.6-0.5-2.1,0.1
		c-0.5,0.6-0.5,1.7,0.1,2.2c0.4,0.4,1.5,0.6,2-0.1c0.1,0.4,0.1,0.4,0.4,0.4c0,0,0.1,0,0.1,0c0.1,0,0.1,0,0.1-0.1c0-0.3,0-0.6,0-0.8
		c0-0.6,0-1.2,0-1.8C26.2,1.9,26.3,1.8,26.2,1.8z M24.6,4.2c-0.5,0-0.9-0.4-0.9-0.9c0-0.5,0.4-0.9,0.9-0.9c0.5,0,0.9,0.4,0.9,0.9
		C25.5,3.8,25.2,4.2,24.6,4.2z"/>
	<path class="st1" d="M18.6,1.8c-0.5-0.1-0.9,0-1.3,0.4c0-0.4,0-0.4-0.4-0.4c-0.1,0-0.1,0-0.2,0c-0.1,0-0.1,0-0.1,0.1
		c0,0.2,0,0.4,0,0.6c0,0.7,0,1.4,0,2.1c0,0.1,0,0.2,0.2,0.2c0.1,0,0.3,0,0.4,0c0.2,0,0.2-0.1,0.2-0.2c0-0.5,0-1,0-1.5
		c0-0.5,0.4-0.7,0.9-0.6c0.3,0.1,0.5,0.3,0.5,0.7c0,0.5,0,1,0,1.4c0,0.1,0,0.2,0.1,0.2c0.2,0,0.3,0,0.5,0c0.1,0,0.1,0,0.1-0.1
		c0-0.6,0-1.2,0-1.8C19.5,2.3,19.1,1.9,18.6,1.8z"/>
	<path class="st1" d="M22.2,3.1c-0.1,0-0.2-0.1-0.3-0.1C21.6,3,21.3,3,21,2.9c-0.1,0-0.2-0.1-0.2-0.3c0-0.1,0.1-0.2,0.2-0.2
		c0.3-0.1,0.5,0,0.8,0c0.1,0,0.2,0.2,0.3,0.1c0.1-0.1,0.2-0.2,0.3-0.3c0.1-0.1,0.1-0.2,0-0.2c-0.6-0.4-1.3-0.4-1.9-0.1
		c-0.3,0.1-0.4,0.4-0.4,0.8c0,0.3,0.2,0.6,0.5,0.7c0.3,0.1,0.6,0.1,0.9,0.2c0.1,0,0.3,0,0.4,0.1C22,3.8,22,4,21.8,4.1
		c-0.1,0.1-0.2,0.1-0.3,0.1c-0.3,0-0.6,0-0.9-0.2c-0.1-0.1-0.2-0.2-0.3-0.2c-0.1,0-0.2,0.2-0.3,0.3c-0.1,0.1-0.1,0.2,0,0.3
		c0.4,0.3,0.8,0.4,1.2,0.4c0.3,0,0.6,0,0.9-0.2c0.3-0.2,0.5-0.5,0.5-0.8C22.7,3.5,22.5,3.3,22.2,3.1z"/>
	<path class="st1" d="M29.1,1.9c-0.1,0.3-0.2,0.6-0.4,0.9c-0.1,0.4-0.3,0.7-0.4,1.1c-0.1-0.1-0.1-0.2-0.1-0.2
		c-0.2-0.6-0.5-1.2-0.7-1.8c0-0.1,0-0.1-0.1-0.1c-0.2,0-0.5,0-0.7,0c0,0.1,0,0.1,0,0.1c0.3,0.8,0.6,1.5,1,2.3
		c0.1,0.2,0.1,0.4,0.3,0.5c0.2,0.1,0.4,0,0.6,0c0.1,0,0.2,0,0.2-0.2C29,4,29.2,3.4,29.5,2.7c0.1-0.3,0.3-0.6,0.4-0.9
		c-0.2,0-0.5,0-0.7,0C29.1,1.8,29.1,1.8,29.1,1.9z"/>
	<path class="st1" d="M10,4.3c0-0.2-0.1-0.2-0.3-0.2C9.4,4.2,9.2,4,9.2,3.7c0-0.3,0-0.5,0-0.8c0-0.2-0.1-0.3,0-0.4
		c0.1-0.1,0.3,0,0.4,0c0.3,0,0.3,0,0.3-0.3c0-0.3,0-0.3-0.3-0.3c-0.2,0-0.4,0.1-0.5,0c-0.1-0.1,0-0.3,0-0.5C9.2,1,9.2,1,8.8,1
		C8.4,1,8.4,1,8.4,1.4c0,0.4,0,0.4-0.3,0.3c-0.2,0-0.2,0-0.2,0.2c0,0.1-0.1,0.3,0,0.4c0.1,0.1,0.3,0,0.4,0c0.1,0,0.1,0,0.1,0.1
		c0,0.2,0,0.4,0,0.6c0,0.2,0,0.4,0,0.6c0,0.7,0.4,1,1,1c0.1,0,0.3,0,0.4-0.1c0.2-0.1,0.2-0.1,0.2-0.3C10,4.4,10,4.3,10,4.3z"/>
	<path class="st1" d="M12.7,1.9c-0.2-0.2-0.5-0.2-0.8-0.2c-0.3,0-0.5,0.2-0.7,0.4c-0.1-0.1,0-0.3-0.1-0.3c-0.1,0-0.3,0-0.4,0
		c0,0-0.1,0-0.1,0c-0.1,0-0.1,0-0.1,0.1c0,0.9,0,1.8,0,2.7c0,0.1,0,0.1,0.1,0.1c0.2,0,0.3,0,0.5,0c0.1,0,0.2,0,0.2-0.2
		c0-0.5,0-1,0-1.5c0-0.6,0.6-0.9,1.1-0.6c0.1,0,0.1,0.1,0.2,0c0.1-0.1,0.1-0.3,0.2-0.4C12.8,2,12.7,2,12.7,1.9z"/>
	<path class="st1" d="M30.9,1.8c-0.1-0.1-0.4,0-0.6,0c-0.1,0-0.1,0-0.1,0.1c0,0.9,0,1.8,0,2.7c0,0.1,0,0.1,0.1,0.1
		c0.2,0,0.3,0,0.5,0c0.1,0,0.1,0,0.1-0.2c0-0.4,0-0.9,0-1.3c0-0.3,0-0.6,0-0.9C31,2.2,31.1,1.9,30.9,1.8z"/>
	<path class="st1" d="M30.6,0.7c-0.2,0-0.4,0.2-0.4,0.4c0,0.2,0.2,0.4,0.4,0.4c0.3,0,0.4-0.2,0.4-0.4C31,0.9,30.9,0.7,30.6,0.7z"/>
</g>
</svg>
