<?xml version="1.0" encoding="utf-8"?>
<!-- Generator: Adobe Illustrator 22.0.1, SVG Export Plug-In . SVG Version: 6.00 Build 0)  -->
<svg version="1.1" id="Layer_1" xmlns="http://www.w3.org/2000/svg" xmlns:xlink="http://www.w3.org/1999/xlink" x="0px" y="0px"
	 viewBox="0 0 35 35" style="enable-background:new 0 0 35 35;" xml:space="preserve">
<style type="text/css">
	.st0{fill:#00D56C;}
</style>
<g>
	<path class="st0" d="M17.5,0C7.8,0,0,7.8,0,17.5C0,27.3,7.7,35,17.5,35C27.2,35,35,27.3,35,17.6C35,7.8,27.3,0,17.5,0z M26.6,21.5
		c-0.4,3.9-3,6.6-6.9,6.9c-2.1,0.1-4-0.3-5.6-1.6c-1.8-1.5-2.5-3.5-2.6-5.7c0-1.2,0-2.4,0-3.6c0-0.1,0.1-0.3-0.1-0.3
		c0,0-0.1,0-0.1,0c-0.9,0-1.8,0-2.7,0c-1.1,0-1.6-0.5-1.6-1.6c0-1.6,0.4-2,1.9-2c1.4,0,2.7,0,4.1,0c0.5,0,0.9,0,1.4,0.1
		c0-1.9,0-3.8,0-5.7c0-1,0.6-1.5,1.5-1.5c0.2,0,0.5,0,0.7,0c1,0,1.5,0.5,1.5,1.5c0,0.9,0,1.9,0,2.8c0,0.3,0.1,0.4,0.4,0.4
		c0.9,0,1.7,0,2.6,0c1,0,1.5,0.5,1.5,1.5c0,0.3,0,0.6,0,0.8c-0.1,0.7-0.6,1.2-1.3,1.2c-1.8,0-3.7,0-5.5,0c-0.2,0-0.3,0-0.5-0.1
		c0,2.2,0,4.3,0,6.5c0,1.4,0.6,2.6,1.9,3.3c2,1,5,0.2,5.4-2.7c0-0.2,0.1-0.5,0.2-0.7c0.2-0.5,0.6-0.8,1.1-0.8c0.5,0,1,0,1.4,0
		C26.2,20.1,26.7,20.7,26.6,21.5z"/>
</g>
</svg>
