<?xml version="1.0" encoding="utf-8"?>
<!-- Generator: Adobe Illustrator 22.0.1, SVG Export Plug-In . SVG Version: 6.00 Build 0)  -->
<svg version="1.1" id="Laag_1" xmlns="http://www.w3.org/2000/svg" xmlns:xlink="http://www.w3.org/1999/xlink" x="0px" y="0px"
	 viewBox="0 0 35 35" style="enable-background:new 0 0 35 35;" xml:space="preserve">
<style type="text/css">
	.st0{fill:#2800A0;}
</style>
<g>
	<path class="st0" d="M28.4,16.7L12.1,0.4C11.9,0.1,11.6,0,11.3,0c-0.3,0-0.6,0.1-0.8,0.4L8.7,2.1C8.5,2.3,8.4,2.6,8.4,2.9
		s0.1,0.6,0.4,0.8l13.8,13.8L8.7,31.3c-0.2,0.2-0.4,0.5-0.4,0.8c0,0.3,0.1,0.6,0.4,0.8l1.8,1.8c0.2,0.2,0.5,0.4,0.8,0.4
		c0.3,0,0.6-0.1,0.8-0.4l16.3-16.3c0.2-0.2,0.4-0.5,0.4-0.8C28.8,17.2,28.7,16.9,28.4,16.7z"/>
</g>
</svg>
