<?xml version="1.0" encoding="utf-8"?>
<!-- Generator: Adobe Illustrator 22.0.1, SVG Export Plug-In . SVG Version: 6.00 Build 0)  -->
<svg version="1.1" id="Laag_1" xmlns="http://www.w3.org/2000/svg" xmlns:xlink="http://www.w3.org/1999/xlink" x="0px" y="0px"
	 viewBox="0 0 35 35" style="enable-background:new 0 0 35 35;" xml:space="preserve">
<style type="text/css">
	.st0{fill:#FF3268;}
</style>
<path class="st0" d="M25.7,2.1c-3.7,0-6,2.2-7.3,4c-0.3,0.5-0.6,1-0.9,1.4c-0.2-0.5-0.5-0.9-0.9-1.4c-1.3-1.8-3.6-4-7.3-4
	c-2.6,0-5,1.1-6.7,3C0.9,7,0,9.5,0,12.2c0,2.9,1.1,5.6,3.6,8.5c2.2,2.6,5.3,5.3,9,8.4c1.4,1.2,2.8,2.3,4.2,3.6l0,0
	c0.2,0.2,0.4,0.3,0.7,0.3c0.2,0,0.5-0.1,0.7-0.3l0,0c1.5-1.3,2.9-2.5,4.2-3.6c3.6-3.1,6.8-5.8,9-8.4c2.4-2.9,3.6-5.6,3.6-8.5
	c0-2.7-0.9-5.2-2.6-7C30.7,3.2,28.3,2.1,25.7,2.1z"/>
</svg>
