<?xml version="1.0" encoding="utf-8"?>
<!-- Generator: Adobe Illustrator 22.0.1, SVG Export Plug-In . SVG Version: 6.00 Build 0)  -->
<svg version="1.1" id="Layer_1" xmlns="http://www.w3.org/2000/svg" xmlns:xlink="http://www.w3.org/1999/xlink" x="0px" y="0px"
	 viewBox="0 0 400 400" style="enable-background:new 0 0 400 400;" xml:space="preserve">
<style type="text/css">
	.st0{fill:#00D56C;}
</style>
<g>
	<path class="st0" d="M199.5,0C88.4-0.1-0.5,88.6-0.5,199.4C-0.5,311.7,87.6,400,199.5,400c111.3,0,200.1-88.1,200.2-198.6
		C399.7,88.7,311.7,0.1,199.5,0z M304.2,245.9c-4.9,44-34,75.4-79,78.4c-23.5,1.6-45.4-3-63.9-18.4c-20.4-17-28.6-39.8-29.4-65.6
		c-0.4-13.6-0.1-27.2-0.2-40.8c0-1.3,0.8-2.9-0.7-3.9c-0.3,0.2-0.6,0.2-0.9-0.1c-10.3-0.1-20.6-0.1-30.9-0.2
		c-12.2-0.1-18.2-6-18.4-18.1c-0.2-17.8,4.4-22.5,22.1-22.5c15.4,0,30.9,0,46.3,0c5.4,0,10.8-0.5,15.9,0.9c0-22-0.1-43.9,0-65.7
		c0.1-11.1,6.4-17.1,17.5-17.2c2.7,0,5.4,0,8.2,0c11.4,0.1,17.5,6.1,17.6,17.5c0.1,10.7,0.2,21.5-0.1,32.2c-0.1,3.5,1,4.3,4.3,4.3
		c9.7-0.2,19.5-0.1,29.2-0.1c11.4,0.1,17.5,6.1,17.7,17.5c0.1,3.1,0.1,6.3-0.4,9.4c-1.3,8.3-6.7,13.4-15.2,13.5
		c-21,0.2-42,0.1-63.1,0.1c-1.9,0-3.9-0.5-5.6-0.8c0,24.6-0.4,49.2,0.1,73.8c0.4,16.4,6.8,30.2,22.1,38.1
		c22.4,11.5,56.8,1.9,61.4-31c0.4-2.8,1-5.6,2.1-8.3c2.4-5.7,6.6-9,12.8-9.3c5.4-0.2,10.9-0.3,16.3,0
		C299.5,230.1,305.2,236.5,304.2,245.9z"/>
</g>
</svg>
