<?xml version="1.0" encoding="utf-8"?>
<!-- Generator: Adobe Illustrator 22.0.1, SVG Export Plug-In . SVG Version: 6.00 Build 0)  -->
<svg version="1.1" id="Laag_1" xmlns="http://www.w3.org/2000/svg" xmlns:xlink="http://www.w3.org/1999/xlink" x="0px" y="0px"
	 viewBox="0 0 25 25" style="enable-background:new 0 0 25 25;" xml:space="preserve">
<style type="text/css">
	.st0{fill:#00D66C;}
</style>
<path class="st0" d="M9.7,19.5c2.4,0,4.5-0.8,6.2-2.3l7.5,7.5c0.2,0.2,0.4,0.3,0.6,0.3c0.2,0,0.5-0.1,0.6-0.3c0.3-0.3,0.3-0.9,0-1.3
	l-7.5-7.5c1.4-1.7,2.3-3.9,2.3-6.2c0-5.4-4.4-9.7-9.7-9.7C4.4,0,0,4.4,0,9.7C0,15.1,4.4,19.5,9.7,19.5z M9.7,1.8c4.4,0,8,3.6,8,8
	c0,4.4-3.6,8-8,8s-8-3.6-8-8C1.8,5.3,5.3,1.8,9.7,1.8z"/>
</svg>
